<?xml version="1.0" encoding="UTF-8"?>
<svg xmlns="http://www.w3.org/2000/svg" xmlns:xlink="http://www.w3.org/1999/xlink" width="2251" height="2776" viewBox="0 0 2251 2776" style="background: transparent;">
<path fill-rule="nonzero" fill="rgb(0%, 0%, 0%)" fill-opacity="1" d="M 0.433594 2.320312 C 3.089844 3.179688 50.886719 18.359375 106.648438 35.691406 C 205.957031 66.691406 210.207031 68.429688 287.210938 105.929688 C 513.976562 216.691406 681.265625 375.578125 798.101562 592.121094 C 906.4375 791.550781 969.105469 1037.789062 971.226562 1271.03125 C 971.226562 1315.03125 972.289062 1350.800781 972.820312 1350.800781 C 973.351562 1350.800781 993 1337.570312 1016.898438 1321.539062 L 1060.449219 1292.058594 L 1059.390625 1253.25 L 1058.859375 1214.238281 L 1128.429688 1214.238281 L 1128.429688 1231.578125 L 1075.320312 1231.578125 L 1075.320312 1279.269531 L 1186.839844 1279.269531 L 1186.839844 1287.289062 C 1186.839844 1294 1195.339844 1300.511719 1230.921875 1321.96875 C 1254.820312 1336.488281 1275.53125 1348.410156 1277.128906 1348.628906 C 1278.71875 1348.628906 1278.71875 1319.148438 1278.191406 1283.171875 C 1274.46875 1157.230469 1302.609375 981.429688 1348.820312 838.148438 C 1435.910156 568.929688 1586.738281 359.96875 1799.699219 213.011719 C 1854.929688 174.859375 1879.890625 160.339844 1945.738281 127.609375 C 1989.289062 105.929688 2031.769531 85.550781 2040.269531 82.300781 C 2048.230469 79.269531 2099.21875 62.789062 2152.859375 46.101562 L 2250.039062 15.53125 L 2161.351562 15.53125 L 2087 37.210938 C 2014.25 58.460938 2012.121094 58.890625 1983.449219 58.890625 L 1954.230469 58.671875 L 1978.128906 50.21875 L 2002.03125 41.550781 L 1978.660156 41.550781 C 1957.949219 41.550781 1950.519531 43.070312 1913.878906 54.988281 C 1891.039062 62.570312 1872.449219 69.289062 1871.921875 70.160156 C 1871.921875 71.25 1894.761719 71.890625 1922.371094 71.890625 L 1972.820312 71.890625 L 1905.378906 103.320312 L 1837.398438 134.761719 L 1775.800781 134.761719 L 1786.421875 128.691406 C 1792.261719 125.21875 1800.761719 121.101562 1805.539062 119.578125 C 1818.808594 115.03125 1814.570312 113.078125 1790.671875 113.078125 C 1768.359375 113.078125 1766.769531 113.519531 1732.25 131.5 C 1712.601562 141.691406 1696.671875 150.359375 1696.671875 151.019531 C 1696.671875 151.660156 1720.570312 152.101562 1749.769531 152.101562 C 1799.160156 152.101562 1802.878906 152.320312 1797.570312 155.78125 C 1794.378906 157.949219 1769.429688 173.769531 1742.871094 191.109375 L 1693.480469 222.550781 L 1660.558594 223.191406 L 1627.628906 223.851562 L 1643.558594 213.230469 C 1652.058594 207.371094 1659.488281 201.949219 1659.488281 201.089844 C 1659.488281 200.441406 1649.398438 199.78125 1637.191406 199.78125 L 1614.351562 199.78125 L 1586.738281 219.941406 L 1559.121094 239.890625 L 1612.230469 240.53125 C 1641.441406 240.75 1664.808594 241.839844 1663.738281 242.921875 C 1662.679688 243.789062 1643.03125 261.351562 1619.660156 281.71875 L 1577.710938 319 L 1546.910156 319 C 1529.910156 319 1516.109375 318.570312 1516.109375 318.140625 C 1516.109375 317.699219 1520.878906 312.71875 1526.730469 307.078125 C 1532.570312 301.449219 1537.351562 296.03125 1537.351562 294.941406 C 1537.351562 293.640625 1527.261719 292.988281 1515.039062 293.429688 L 1492.210938 294.078125 L 1469.898438 314.671875 C 1457.691406 325.941406 1447.601562 335.910156 1447.601562 336.78125 C 1447.070312 337.859375 1470.96875 338.519531 1500.171875 338.519531 C 1529.378906 338.519531 1553.28125 339.160156 1553.28125 340.03125 C 1552.75 341.109375 1537.878906 358.890625 1519.289062 379.699219 L 1485.300781 417.628906 L 1452.910156 418.28125 L 1421.039062 418.929688 L 1431.128906 406.578125 C 1436.980469 399.859375 1441.75 393.789062 1441.75 393.359375 C 1441.75 393.140625 1431.128906 392.699219 1418.390625 392.699219 C 1398.210938 392.699219 1394.488281 393.359375 1389.710938 398.558594 C 1380.679688 408.089844 1356.789062 436.269531 1356.789062 437.359375 C 1356.789062 437.789062 1382.269531 438.230469 1413.078125 438.230469 C 1464.589844 438.230469 1469.371094 438.660156 1465.648438 441.910156 C 1461.929688 445.808594 1409.890625 518.640625 1409.890625 519.941406 C 1409.890625 520.160156 1395.550781 520.589844 1378.03125 520.589844 L 1346.160156 520.589844 L 1349.351562 514.53125 C 1351.46875 511.269531 1355.191406 506.5 1357.320312 503.691406 C 1364.75 495.449219 1363.160156 494.578125 1338.191406 494.578125 C 1314.828125 494.578125 1314.828125 494.578125 1308.988281 503.691406 C 1305.800781 508.890625 1299.429688 517.988281 1295.179688 524.28125 C 1291.460938 530.351562 1287.75 536.421875 1287.75 537.71875 C 1287.75 539.238281 1305.800781 540.109375 1341.378906 540.109375 C 1394.488281 540.109375 1395.019531 540.109375 1392.890625 544.871094 C 1391.308594 547.691406 1381.21875 566.769531 1369.53125 587.140625 L 1348.820312 624.640625 L 1286.148438 624.640625 L 1289.339844 617.488281 C 1290.929688 613.808594 1294.121094 607.300781 1296.238281 603.398438 L 1299.960938 596.460938 L 1277.660156 596.460938 C 1259.601562 596.460938 1254.820312 597.328125 1250.570312 601.230469 C 1246.320312 605.78125 1229.328125 637.859375 1229.328125 642.199219 C 1229.328125 643.28125 1253.230469 644.148438 1282.429688 644.148438 C 1329.699219 644.148438 1335.539062 644.578125 1335.539062 647.839844 C 1335.011719 650 1327.570312 668.859375 1318.019531 689.671875 L 1301.019531 727.609375 L 1268.089844 728.25 L 1235.699219 728.898438 L 1240.480469 720.671875 C 1243.140625 716.109375 1245.261719 709.828125 1245.261719 706.789062 C 1245.261719 701.371094 1243.671875 701.160156 1222.949219 701.371094 L 1200.121094 701.589844 L 1191.089844 722.179688 C 1186.308594 733.460938 1182.058594 744.078125 1182.058594 745.378906 C 1181.53125 747.550781 1195.871094 748.191406 1237.289062 748.191406 C 1292.519531 748.191406 1293.058594 748.191406 1290.398438 752.960938 C 1289.339844 755.78125 1282.96875 772.46875 1277.128906 790.460938 C 1260.660156 839.671875 1265.96875 834.898438 1228.800781 834.898438 C 1199.058594 834.898438 1197.460938 834.679688 1199.589844 829.910156 C 1201.179688 827.320312 1203.308594 821.03125 1204.898438 815.820312 L 1208.089844 806.71875 L 1184.71875 806.71875 C 1163.480469 806.71875 1160.820312 807.371094 1158.160156 812.570312 C 1154.980469 817.988281 1144.890625 848.558594 1144.359375 852.679688 C 1144.359375 853.761719 1169.851562 854.410156 1200.648438 854.410156 L 1257.46875 854.410156 L 1254.289062 860.261719 C 1252.691406 863.730469 1247.378906 883.238281 1242.070312 903.609375 L 1232.519531 941.109375 L 1169.320312 941.109375 L 1172.5 927.03125 L 1175.691406 912.941406 L 1129.488281 912.941406 L 1126.300781 900.359375 C 1124.179688 893.640625 1121.519531 885.410156 1119.929688 881.941406 L 1116.738281 876.089844 L 1058.859375 876.089844 C 1026.988281 876.089844 1000.96875 875.441406 1000.96875 874.351562 C 1000.96875 873.480469 995.125 854.191406 987.691406 831.648438 C 980.257812 808.890625 974.414062 790.25 974.414062 789.820312 C 974.414062 789.601562 989.816406 789.378906 1008.398438 789.378906 L 1042.390625 789.378906 L 1045.578125 797.398438 C 1054.609375 818.640625 1052.480469 817.558594 1078.5 817.558594 L 1102.398438 817.558594 L 1099.75 810.410156 C 1098.148438 806.71875 1093.910156 795.878906 1090.71875 786.78125 L 1084.339844 770.089844 L 1025.398438 769.441406 L 966.980469 768.789062 L 954.765625 738.441406 C 947.859375 721.75 940.425781 702.890625 937.769531 696.609375 L 933.523438 685.121094 L 968.574219 685.769531 L 1003.628906 686.421875 L 1008.929688 699.429688 L 1014.78125 712.429688 L 1038.140625 712.429688 C 1051.421875 712.429688 1061.511719 711.351562 1061.511719 710.261719 C 1060.980469 708.960938 1056.730469 698.558594 1051.421875 687.070312 L 1042.390625 666.039062 L 983.441406 665.390625 L 925.023438 664.738281 L 904.84375 625.730469 C 893.691406 604.269531 884.664062 585.410156 884.132812 583.890625 C 884.132812 582.160156 894.222656 581.289062 918.121094 581.289062 L 952.640625 581.289062 L 959.011719 594.289062 L 965.386719 607.300781 L 988.222656 607.300781 C 1015.839844 607.300781 1015.308594 607.949219 1000.441406 581.5 L 989.285156 562 L 930.335938 561.351562 C 872.980469 560.691406 871.386719 560.480469 867.667969 555.28125 C 857.578125 541.398438 820.40625 482.011719 820.40625 479.839844 C 820.40625 478.109375 832.089844 477.238281 854.394531 477.238281 C 886.789062 477.238281 888.382812 477.460938 891.566406 483.089844 C 905.90625 506.5 903.78125 505.421875 929.273438 505.421875 C 954.765625 505.421875 955.828125 504.988281 948.390625 495.449219 C 945.738281 491.980469 938.300781 482.230469 932.460938 473.558594 L 921.308594 457.949219 L 862.359375 457.300781 L 802.878906 456.648438 L 772.078125 417.628906 C 755.082031 396.171875 740.746094 377.960938 740.746094 376.878906 C 740.746094 376.019531 756.144531 375.359375 775.265625 375.359375 C 794.382812 375.359375 809.78125 376.230469 809.78125 377.53125 C 809.78125 378.609375 814.5625 384.898438 820.9375 391.621094 C 831.558594 403.320312 832.089844 403.539062 852.269531 403.539062 C 863.421875 403.539062 874.042969 402.890625 875.105469 401.808594 C 876.167969 400.941406 868.730469 390.75 858.640625 379.050781 L 840.054688 358.019531 L 721.625 358.019531 L 699.851562 335.691406 C 687.636719 323.558594 669.582031 305.570312 658.960938 295.589844 L 640.371094 277.820312 L 709.941406 277.820312 L 723.75 290.820312 C 738.089844 303.828125 738.089844 303.828125 760.394531 303.828125 C 773.140625 303.828125 783.230469 302.960938 783.230469 301.878906 C 783.230469 301.019531 773.140625 291.039062 760.394531 279.988281 L 738.089844 260.050781 L 680.734375 260.050781 C 627.625 260.261719 623.378906 259.828125 616.472656 255.488281 C 612.226562 252.890625 588.859375 235.769531 563.898438 217.558594 L 518.226562 184.609375 L 589.390625 184.609375 L 605.320312 196.101562 C 620.722656 206.5 623.378906 207.371094 644.089844 208.019531 C 656.304688 208.460938 666.394531 208.019531 666.394531 207.160156 C 666.394531 206.289062 654.179688 196.96875 638.777344 186.351562 L 611.164062 167.269531 L 493.265625 167.269531 L 432.722656 134.320312 C 399.265625 116.328125 371.121094 100.730469 370.058594 99.640625 C 368.996094 98.769531 383.335938 97.910156 401.921875 97.910156 L 435.378906 98.121094 L 456.089844 108.75 C 475.210938 118.710938 478.925781 119.578125 500.171875 119.578125 C 512.386719 119.578125 523.007812 119.148438 523.007812 118.5 C 523.007812 117.851562 506.011719 109.609375 485.300781 100.070312 L 448.125 82.730469 L 387.582031 82.730469 C 328.105469 82.730469 327.042969 82.730469 316.421875 76.660156 C 310.578125 73.410156 277.121094 61.058594 242.070312 49.140625 C 207.019531 37.210938 178.34375 26.808594 178.34375 25.730469 C 177.8125 24.859375 191.621094 24.210938 209.144531 24.210938 C 237.292969 24.210938 242.601562 25.070312 267.03125 32.878906 C 289.867188 40.25 297.300781 41.550781 319.074219 41.550781 L 344.566406 41.550781 L 251.097656 13.371094 L 192.679688 13.371094 C 136.386719 13.371094 132.671875 13.148438 107.710938 6.871094 C 84.875 1.019531 77.441406 0.359375 38.671875 0.359375 C 13.710938 0.359375 -2.75 1.230469 0.433594 2.320312 Z M 1077.96875 905.78125 C 1079.570312 911.640625 1081.691406 917.699219 1082.21875 919.441406 C 1082.75 921.609375 1090.71875 922.910156 1103.460938 923.339844 L 1123.640625 923.988281 L 1119.929688 942.410156 L 1116.210938 960.621094 L 1226.671875 960.621094 L 1219.238281 1001.160156 C 1215.519531 1023.699219 1211.269531 1043.210938 1210.210938 1044.511719 C 1209.148438 1046.460938 1198 1047.328125 1179.410156 1047.328125 L 1150.730469 1047.328125 L 1150.730469 1024.570312 C 1150.199219 1012 1148.609375 997.46875 1146.480469 992.058594 L 1143.289062 982.300781 L 1028.050781 982.300781 L 1025.398438 975.148438 C 1023.808594 971.460938 1020.089844 956.070312 1016.898438 941.109375 C 1013.710938 926.160156 1010 909.898438 1008.398438 904.699219 L 1005.75 895.589844 L 1074.789062 895.589844 Z M 1099.75 1034.320312 L 1096.03125 1066.839844 L 1205.960938 1066.839844 L 1203.839844 1085.691406 C 1202.769531 1096.320312 1200.121094 1115.390625 1198 1128.609375 L 1194.808594 1152.460938 L 1164.539062 1153.109375 L 1133.730469 1153.761719 L 1133.730469 1145.089844 C 1133.730469 1137.070312 1134.800781 1136.421875 1150.730469 1135.769531 L 1167.71875 1135.121094 L 1166.660156 1115.609375 C 1164.539062 1086.558594 1168.789062 1088.519531 1102.398438 1088.519531 L 1045.578125 1088.519531 L 1039.199219 1052.101562 C 1035.488281 1032.160156 1032.828125 1012.648438 1032.828125 1008.75 L 1032.828125 1001.808594 L 1103.460938 1001.808594 Z M 1117.808594 1116.691406 C 1117.808594 1124.929688 1116.738281 1125.359375 1101.871094 1125.359375 C 1086.46875 1125.359375 1085.941406 1125.578125 1085.941406 1135.980469 C 1085.941406 1141.621094 1084.339844 1152.460938 1082.75 1159.828125 L 1079.039062 1173.050781 L 1192.148438 1173.050781 L 1192.148438 1185.410156 C 1192.148438 1192.339844 1190.558594 1211.851562 1188.429688 1228.761719 L 1185.25 1259.761719 L 1123.109375 1259.761719 L 1123.640625 1246.101562 C 1124.179688 1238.730469 1125.769531 1234.828125 1126.828125 1237.429688 C 1128.960938 1241.769531 1132.671875 1242.410156 1152.851562 1242.410156 L 1176.75 1242.410156 L 1175.160156 1219 L 1173.570312 1195.808594 L 1114.089844 1195.160156 L 1054.070312 1194.511719 L 1054.070312 1178.898438 C 1054.070312 1170.230469 1052.480469 1150.941406 1050.359375 1135.550781 L 1047.171875 1108.019531 L 1117.808594 1108.019531 Z M 1117.808594 1116.691406 "/>
<path fill-rule="nonzero" fill="rgb(0%, 0%, 0%)" fill-opacity="1" d="M 1082.21875 1309.390625 L 1059.921875 1310.691406 L 958.480469 1376.371094 L 857.578125 1441.839844 L 857.578125 1715.609375 L 882.007812 1714.089844 C 895.816406 1713.441406 920.246094 1712.789062 936.707031 1712.789062 L 966.980469 1712.789062 L 1000.441406 1656.429688 C 1018.488281 1625.441406 1036.019531 1596.609375 1038.671875 1592.488281 L 1043.980469 1584.898438 L 1190.03125 1584.898438 L 1223.480469 1644.941406 C 1242.070312 1678.109375 1259.601562 1707.371094 1261.71875 1709.96875 C 1265.96875 1714.738281 1269.160156 1714.960938 1316.949219 1714.960938 L 1367.410156 1714.960938 L 1367.410156 1441.398438 L 1265.96875 1374.429688 L 1164.539062 1307.441406 L 1134.800781 1307.878906 C 1117.808594 1307.878906 1094.441406 1308.75 1082.21875 1309.390625 Z M 1186.839844 1480.859375 L 1186.839844 1554.769531 L 1116.738281 1554.121094 L 1046.109375 1553.46875 L 1044.519531 1483.019531 C 1043.980469 1444.21875 1044.519531 1411.488281 1046.109375 1409.96875 C 1047.699219 1407.808594 1066.820312 1407.160156 1117.808594 1407.160156 L 1186.839844 1407.160156 Z M 1186.839844 1480.859375 "/>
<path fill-rule="nonzero" fill="rgb(0%, 0%, 0%)" fill-opacity="1" d="M 1059.390625 1599.210938 C 1059.390625 1599.859375 1033.890625 1644.289062 1003.089844 1698.269531 L 947.328125 1796.246094 L 977.070312 1807.300781 C 1048.230469 1833.527344 1096.558594 1839.382812 1151.789062 1828.757812 C 1180.46875 1823.339844 1266.5 1798.847656 1266.5 1796.027344 C 1266.5 1795.378906 1246.320312 1751.371094 1221.359375 1698.480469 C 1196.398438 1645.378906 1176.21875 1600.941406 1176.21875 1599.859375 C 1176.21875 1598.769531 1150.199219 1597.910156 1117.808594 1597.910156 C 1085.941406 1597.910156 1059.390625 1598.339844 1059.390625 1599.210938 Z M 1059.390625 1599.210938 "/>
<path fill-rule="nonzero" fill="rgb(0%, 0%, 0%)" fill-opacity="1" d="M 1212.328125 1823.992188 C 1175.160156 1834.179688 1170.910156 1835.914062 1170.910156 1842.199219 L 1170.910156 1849.351562 L 1059.390625 1849.351562 L 1059.390625 1897.039062 L 1106.648438 1897.039062 L 1108.238281 1883.382812 L 1109.839844 1869.945312 L 1168.25 1869.945312 L 1169.851562 1912.648438 L 1170.910156 1955.347656 L 1116.738281 1956 L 1062.039062 1956.648438 L 1060.449219 1980.925781 L 1058.859375 2005.421875 L 1106.648438 2005.421875 L 1108.238281 1990.679688 L 1109.839844 1976.160156 L 1168.25 1976.160156 L 1169.851562 2018.859375 L 1170.910156 2061.5625 L 1116.738281 2062.214844 L 1062.039062 2062.863281 L 1060.449219 2087.140625 L 1058.859375 2111.636719 L 1107.179688 2111.636719 L 1107.179688 2083.457031 L 1170.910156 2083.457031 L 1170.910156 2170.160156 L 1059.390625 2170.160156 L 1059.390625 2217.847656 L 1107.179688 2217.847656 L 1107.179688 2189.671875 L 1170.910156 2189.671875 L 1170.910156 2276.375 L 1059.390625 2276.375 L 1059.390625 2324.0625 L 1107.179688 2324.0625 L 1107.179688 2295.882812 L 1170.910156 2295.882812 L 1170.910156 2382.589844 L 1059.390625 2382.589844 L 1059.390625 2430.277344 L 1107.179688 2430.277344 L 1107.179688 2402.097656 L 1170.910156 2402.097656 L 1170.910156 2488.804688 L 1059.390625 2488.804688 L 1059.390625 2536.492188 L 1107.179688 2536.492188 L 1107.179688 2508.3125 L 1170.910156 2508.3125 L 1170.910156 2595.015625 L 1059.390625 2595.015625 L 1059.390625 2642.703125 L 1107.179688 2642.703125 L 1107.179688 2614.527344 L 1170.910156 2614.527344 L 1170.910156 2701.230469 L 1059.390625 2701.230469 L 1059.390625 2748.917969 L 1107.179688 2748.917969 L 1107.179688 2720.738281 L 1170.910156 2720.738281 L 1170.910156 2774.929688 L 1255.878906 2774.929688 L 1255.878906 2293.714844 C 1255.878906 2029.046875 1255.351562 1812.503906 1254.820312 1812.71875 C 1253.761719 1812.71875 1234.640625 1817.921875 1212.328125 1823.992188 Z M 1212.328125 1823.992188 "/>
<path fill-rule="nonzero" fill="rgb(0%, 0%, 0%)" fill-opacity="1" d="M 958.480469 2300.4375 L 958.480469 2775.363281 L 1058.320312 2773.628906 C 1113.019531 2772.980469 1159.230469 2771.679688 1161.878906 2771.246094 C 1164.011719 2770.8125 1165.601562 2760.191406 1165.601562 2747.617188 L 1165.601562 2725.074219 L 1117.808594 2725.074219 L 1117.808594 2737.863281 C 1117.808594 2747.402344 1115.679688 2750.871094 1109.308594 2751.953125 C 1098.679688 2753.6875 1071.070312 2753.6875 1055.140625 2751.953125 L 1043.449219 2750.652344 L 1044.519531 2707.949219 L 1046.109375 2665.464844 L 1106.121094 2664.816406 L 1166.128906 2664.164062 L 1164.539062 2640.96875 L 1162.941406 2617.777344 L 1140.640625 2617.125 L 1117.808594 2616.476562 L 1117.808594 2644.871094 L 1043.449219 2644.871094 L 1044.519531 2602.171875 L 1046.109375 2559.25 L 1106.121094 2558.601562 L 1166.128906 2557.949219 L 1164.539062 2534.757812 L 1162.941406 2511.5625 L 1140.640625 2510.914062 L 1117.808594 2510.261719 L 1117.808594 2538.660156 L 1043.449219 2538.660156 L 1044.519531 2495.957031 L 1046.109375 2453.035156 L 1106.121094 2452.386719 L 1166.128906 2451.738281 L 1164.539062 2428.542969 L 1162.941406 2405.347656 L 1140.640625 2404.699219 L 1117.808594 2404.046875 L 1117.808594 2432.445312 L 1043.449219 2432.445312 L 1043.449219 2345.957031 L 1103.460938 2345.304688 L 1162.941406 2344.65625 L 1164.539062 2321.246094 L 1166.128906 2298.050781 L 1117.808594 2298.050781 L 1117.808594 2326.230469 L 1043.449219 2326.230469 L 1043.449219 2239.742188 L 1103.460938 2239.09375 L 1162.941406 2238.441406 L 1164.539062 2215.03125 L 1166.128906 2191.835938 L 1117.808594 2191.835938 L 1117.808594 2220.015625 L 1043.449219 2220.015625 L 1043.449219 2133.527344 L 1103.460938 2132.878906 L 1162.941406 2132.226562 L 1164.539062 2108.816406 L 1166.128906 2085.625 L 1118.328125 2085.625 L 1116.738281 2099.0625 L 1115.148438 2112.71875 L 1079.570312 2113.371094 L 1043.449219 2114.019531 L 1043.449219 2027.316406 L 1103.460938 2026.664062 L 1162.941406 2026.015625 L 1164.539062 2002.605469 L 1166.128906 1979.410156 L 1118.328125 1979.410156 L 1116.738281 1992.847656 L 1115.148438 2006.503906 L 1046.109375 2006.503906 L 1044.519531 1963.804688 L 1043.449219 1921.101562 L 1102.929688 1920.449219 L 1162.941406 1919.800781 L 1164.539062 1896.390625 L 1166.128906 1873.195312 L 1118.328125 1873.195312 L 1116.738281 1886.636719 L 1115.148438 1900.292969 L 1046.109375 1900.292969 L 1044.519531 1871.460938 L 1042.921875 1842.847656 L 1000.96875 1834.179688 L 958.480469 1825.507812 Z M 958.480469 2300.4375 "/>
</svg>